<?xml version="1.0" encoding="UTF-8" standalone="no"?>
<!DOCTYPE svg PUBLIC "-//W3C//DTD SVG 1.1//EN" "http://www.w3.org/Graphics/SVG/1.1/DTD/svg11.dtd">
<svg width="100%" height="100%" viewBox="0 0 16 16" version="1.1" xmlns="http://www.w3.org/2000/svg" xmlns:xlink="http://www.w3.org/1999/xlink" xml:space="preserve" xmlns:serif="http://www.serif.com/" style="fill-rule:evenodd;clip-rule:evenodd;stroke-linejoin:round;stroke-miterlimit:2;">
    <g transform="matrix(1,0,0,1,-193.414,-487.955)">
        <g id="Favicon-512" serif:id="Favicon 512" transform="matrix(0.0260692,0,0,0.0260692,-677.062,400.018)">
            <g transform="matrix(1,0,0,1,0,-0.00198465)">
                <rect x="33391" y="3373.2" width="613.751" height="613.751" style="fill:none;"/>
            </g>
            <g transform="matrix(0.813764,0,0,0.813764,5133.72,1262.85)">
                <g>
                    <g>
                        <g transform="matrix(1.54985,0,0,1.54985,27903.6,680.719)">
                            <path d="M4795.2,1342.53C4800.96,1335.83 4803.13,1326.87 4802.19,1318.19C4801.29,1309.83 4797.46,1301.91 4792.12,1296.85C4792.12,1296.85 4792.12,1296.85 4792.12,1296.85C4750.42,1257.35 4702.46,1237.84 4647.87,1237.84C4534.45,1237.84 4442.37,1329.93 4442.37,1443.34C4442.37,1507.68 4474.5,1564.59 4513.48,1609.52C4570.73,1675.5 4642.3,1715.45 4642.3,1715.45C4645.9,1717.46 4650.31,1717.37 4653.82,1715.22C4653.82,1715.22 4748.98,1656.93 4796.64,1596.17C4796.79,1595.98 4796.94,1595.78 4797.07,1595.58C4823.35,1557.3 4773.3,1515.65 4740.01,1545.32C4715.85,1566.48 4684.38,1578.62 4651.22,1578.62C4576.56,1578.62 4515.94,1518.01 4515.94,1443.34C4515.94,1368.67 4576.56,1308.06 4651.22,1308.06C4686.01,1308.06 4719.27,1321.45 4744.26,1345.13C4744.35,1345.21 4744.44,1345.29 4744.53,1345.38C4750.68,1350.84 4763.65,1357.9 4777.39,1354.24C4783.27,1352.68 4789.44,1349.24 4795.2,1342.53L4795.2,1342.53Z"/>
                        </g>
                        <g transform="matrix(7.50847,0,0,6.21695,-228123,-10085)">
                            <path d="M35082.5,2098.82C35081.7,2103.48 35084.1,2107.22 35087.1,2108.65C35090.4,2110.21 35094.2,2109.1 35095.7,2104.46C35096.9,2100.99 35097.6,2094.53 35097.4,2088.62C35097.3,2084.41 35096.6,2080.49 35095.5,2077.93C35094.7,2076.18 35093.3,2074.78 35091.4,2074.1C35088.7,2073.12 35086.2,2073.96 35084.5,2075.79C35082.8,2077.65 35081.8,2080.58 35082.4,2084C35083.4,2089.2 35083.3,2094.27 35082.5,2098.82Z"/>
                        </g>
                    </g>
                    <g transform="matrix(2.83377,0,0,2.83377,-64254.2,-3014.51)">
                        <ellipse cx="35063.2" cy="2091.38" rx="31.9" ry="30.819"/>
                    </g>
                </g>
            </g>
        </g>
    </g>
</svg>
