<?xml version="1.0" encoding="UTF-8" standalone="no"?>
<!DOCTYPE svg PUBLIC "-//W3C//DTD SVG 1.1//EN" "http://www.w3.org/Graphics/SVG/1.1/DTD/svg11.dtd">
<svg width="100%" height="100%" viewBox="0 0 64 64" version="1.1" xmlns="http://www.w3.org/2000/svg" xmlns:xlink="http://www.w3.org/1999/xlink" xml:space="preserve" xmlns:serif="http://www.serif.com/" style="fill-rule:evenodd;clip-rule:evenodd;stroke-linejoin:round;stroke-miterlimit:2;">
    <g transform="matrix(1,0,0,1,-731.154,-743.455)">
        <g id="Favicon-512" serif:id="Favicon 512" transform="matrix(0.104277,0,0,0.104277,-2750.76,391.709)">
            <rect x="33391" y="3373.2" width="613.751" height="613.751" style="fill:none;"/>
            <clipPath id="_clip1">
                <rect x="33391" y="3373.2" width="613.751" height="613.751"/>
            </clipPath>
            <g clip-path="url(#_clip1)">
                <g transform="matrix(0.868023,0,0,0.868023,3229.05,1101.68)">
                    <g>
                        <g transform="matrix(1.54985,0,0,1.54985,27903.6,680.719)">
                            <path d="M4786.54,1335.09C4793.93,1326.49 4791.38,1311.88 4784.27,1305.14C4744.83,1267.78 4699.5,1249.26 4647.87,1249.26C4540.75,1249.26 4453.79,1336.23 4453.79,1443.34C4453.79,1597.1 4647.87,1705.48 4647.87,1705.48C4647.87,1705.48 4741.04,1648.56 4787.66,1589.12C4795.56,1577.61 4793.24,1561.95 4782.33,1553.23C4782.44,1553.1 4782.44,1553.1 4782.44,1553.1C4772.17,1544.9 4757.52,1545.21 4747.61,1553.84C4721.32,1576.87 4687.19,1590.04 4651.22,1590.04C4570.26,1590.04 4504.52,1524.31 4504.52,1443.34C4504.52,1362.37 4570.26,1296.64 4651.22,1296.64C4688.95,1296.64 4725.01,1311.16 4752.11,1336.84C4758.11,1342.17 4773.42,1350.36 4786.54,1335.09Z" style="fill:rgb(0,107,107);"/>
                        </g>
                        <g transform="matrix(9.1504,0,0,9.65994,-285738,-17285.6)">
                            <path d="M35087.5,2104.74C35088.4,2105.26 35089.5,2105.36 35090.5,2105.04C35091.5,2104.72 35092.4,2103.99 35092.8,2103.05C35094.3,2099.35 35095.1,2095.39 35095.1,2091.38C35095.1,2087.36 35094.3,2083.41 35092.7,2079.72C35092.3,2078.78 35091.5,2078.07 35090.5,2077.74C35089.5,2077.42 35088.4,2077.53 35087.5,2078.04C35087.5,2078.01 35087.5,2078.01 35087.5,2078.01C35085.6,2079.05 35084.8,2081.25 35085.5,2083.19C35086.6,2085.78 35087.1,2088.56 35087.1,2091.38C35087.1,2094.19 35086.6,2096.97 35085.6,2099.58C35084.8,2101.5 35085.6,2103.67 35087.5,2104.7C35087.5,2104.74 35087.5,2104.74 35087.5,2104.74Z" style="fill:rgb(44,154,153);"/>
                        </g>
                    </g>
                    <g transform="matrix(1,0,0,1,9.18563,1604.94)">
                        <path d="M35182.4,1427.93C35182.6,1437.76 35186,1445.91 35192.6,1452.46C35199.3,1459.21 35207.8,1462.67 35218,1462.67C35218,1462.67 35218,1462.67 35218,1462.67C35228.3,1462.67 35236.7,1459.21 35243.5,1452.46C35250.2,1445.71 35253.7,1437.25 35253.7,1427C35253.7,1427 35253.7,1307.29 35253.7,1307.29C35253.7,1277.85 35246.8,1251.16 35233,1227.19C35219.2,1203.18 35200.5,1184.28 35176.9,1170.48C35153.2,1156.69 35126.9,1149.76 35097.8,1149.76C35068.7,1149.76 35042.2,1156.67 35018.2,1170.45C34994.2,1184.27 34975.4,1203.2 34961.7,1227.24C34948.2,1251.19 34941.3,1277.87 34941.3,1307.29C34941.3,1336.63 34947.7,1363.23 34960.3,1387.12C34973,1411.21 34990.5,1430.07 35012.6,1443.73C35034.9,1457.41 35059.7,1464.28 35087,1464.28C35109.1,1464.28 35129.6,1459.7 35148.6,1450.58C35161.1,1444.59 35172.4,1437.04 35182.4,1427.93ZM35097.8,1399.39C35081.5,1399.39 35066.7,1395.42 35053.5,1387.43C35040.2,1379.42 35029.8,1368.45 35022.1,1354.54C35014.3,1340.53 35010.5,1324.77 35010.5,1307.29C35010.5,1289.79 35014.4,1273.93 35022.1,1259.73C35029.8,1245.67 35040.2,1234.62 35053.5,1226.61C35066.7,1218.62 35081.5,1214.65 35097.8,1214.65C35114.1,1214.65 35128.9,1218.62 35142.1,1226.61C35155.3,1234.6 35165.6,1245.63 35173.1,1259.66C35180.8,1273.88 35184.5,1289.76 35184.5,1307.29C35184.5,1324.79 35180.8,1340.57 35173.2,1354.61C35165.7,1368.49 35155.3,1379.43 35142.1,1387.43C35128.9,1395.42 35114.1,1399.39 35097.8,1399.39Z" style="fill:rgb(0,107,107);fill-rule:nonzero;"/>
                    </g>
                    <g transform="matrix(1.35608,0,0,1.35608,-12441.7,75.8938)">
                        <ellipse cx="35063.2" cy="2091.38" rx="31.9" ry="30.819" style="fill:rgb(252,115,0);"/>
                    </g>
                </g>
            </g>
        </g>
    </g>
</svg>
