<?xml version="1.0" encoding="UTF-8" standalone="no"?>
<!DOCTYPE svg PUBLIC "-//W3C//DTD SVG 1.1//EN" "http://www.w3.org/Graphics/SVG/1.1/DTD/svg11.dtd">
<svg width="100%" height="100%" viewBox="0 0 1280 487" version="1.1" xmlns="http://www.w3.org/2000/svg" xmlns:xlink="http://www.w3.org/1999/xlink" xml:space="preserve" xmlns:serif="http://www.serif.com/" style="fill-rule:evenodd;clip-rule:evenodd;stroke-linejoin:round;stroke-miterlimit:2;">
    <g transform="matrix(1,0,0,1,-135.272,-152.262)">
        <g transform="matrix(0.689487,0,0,0.68876,-23346.4,-831.848)">
            <g transform="matrix(1.54985,0,0,1.54985,27903.6,-507.359)">
                <path d="M4786.54,1335.09C4793.93,1326.49 4791.38,1311.88 4784.27,1305.14C4744.83,1267.78 4699.5,1249.26 4647.87,1249.26C4540.75,1249.26 4453.79,1336.23 4453.79,1443.34C4453.79,1597.1 4647.87,1705.48 4647.87,1705.48C4647.87,1705.48 4738.41,1650.17 4785.65,1591.65C4790.34,1585.83 4792.52,1578.37 4791.68,1570.94C4790.85,1563.51 4787.08,1556.72 4781.21,1552.09C4781.18,1552.12 4781.18,1552.12 4781.18,1552.11C4771.53,1544.5 4757.83,1544.9 4748.65,1553.06C4722.15,1576.54 4687.64,1590.04 4651.22,1590.04C4570.26,1590.04 4504.52,1524.31 4504.52,1443.34C4504.52,1362.37 4570.26,1296.64 4651.22,1296.64C4688.95,1296.64 4725.01,1311.16 4752.11,1336.84C4758.11,1342.17 4773.42,1350.36 4786.54,1335.09Z" style="fill:rgb(0,107,107);"/>
            </g>
            <g transform="matrix(1,0,0,1,9.18563,416.86)">
                <path d="M35182.4,1427.93C35182.6,1437.76 35186,1445.91 35192.6,1452.46C35199.3,1459.21 35207.8,1462.67 35218,1462.67C35218,1462.67 35218,1462.67 35218,1462.67C35228.3,1462.67 35236.7,1459.21 35243.5,1452.46C35250.2,1445.71 35253.7,1437.25 35253.7,1427C35253.7,1427 35253.7,1307.29 35253.7,1307.29C35253.7,1277.85 35246.8,1251.16 35233,1227.19C35219.2,1203.18 35200.5,1184.28 35176.9,1170.48C35153.2,1156.69 35126.9,1149.76 35097.8,1149.76C35068.7,1149.76 35042.2,1156.67 35018.2,1170.45C34994.2,1184.27 34975.4,1203.2 34961.7,1227.24C34948.2,1251.19 34941.3,1277.87 34941.3,1307.29C34941.3,1336.63 34947.7,1363.23 34960.3,1387.12C34973,1411.21 34990.5,1430.07 35012.6,1443.73C35034.9,1457.41 35059.7,1464.28 35087,1464.28C35109.1,1464.28 35129.6,1459.7 35148.6,1450.58C35161.1,1444.59 35172.4,1437.04 35182.4,1427.93ZM35097.8,1399.39C35081.5,1399.39 35066.7,1395.42 35053.5,1387.43C35040.2,1379.42 35029.8,1368.45 35022.1,1354.54C35014.3,1340.53 35010.5,1324.77 35010.5,1307.29C35010.5,1289.79 35014.4,1273.93 35022.1,1259.73C35029.8,1245.67 35040.2,1234.62 35053.5,1226.61C35066.7,1218.62 35081.5,1214.65 35097.8,1214.65C35114.1,1214.65 35128.9,1218.62 35142.1,1226.61C35155.3,1234.6 35165.6,1245.63 35173.1,1259.66C35180.8,1273.88 35184.5,1289.76 35184.5,1307.29C35184.5,1324.79 35180.8,1340.57 35173.2,1354.61C35165.7,1368.49 35155.3,1379.43 35142.1,1387.43C35128.9,1395.42 35114.1,1399.39 35097.8,1399.39Z" style="fill:rgb(0,107,107);fill-rule:nonzero;"/>
            </g>
            <g transform="matrix(1,0,0,1,-4.46307,416.86)">
                <path d="M35846.4,1427.93C35846.6,1437.76 35850,1445.91 35856.6,1452.46C35863.3,1459.21 35871.8,1462.67 35882,1462.67C35882,1462.67 35882,1462.67 35882,1462.67C35892.3,1462.67 35900.7,1459.21 35907.5,1452.46C35914.2,1445.71 35917.7,1437.25 35917.7,1427C35917.7,1427 35917.7,1307.29 35917.7,1307.29C35917.7,1277.85 35910.8,1251.16 35897,1227.19C35883.2,1203.18 35864.5,1184.28 35840.8,1170.48C35817.2,1156.69 35790.9,1149.76 35761.8,1149.76C35732.7,1149.76 35706.2,1156.67 35682.2,1170.45C35658.2,1184.27 35639.3,1203.2 35625.7,1227.24C35612.1,1251.19 35605.3,1277.87 35605.3,1307.29C35605.3,1336.63 35611.6,1363.23 35624.2,1387.12C35637,1411.21 35654.4,1430.07 35676.6,1443.73C35698.9,1457.41 35723.7,1464.28 35751,1464.28C35773.1,1464.28 35793.6,1459.7 35812.6,1450.58C35825.1,1444.59 35836.3,1437.04 35846.4,1427.93ZM35761.8,1399.39C35745.5,1399.39 35730.7,1395.42 35717.5,1387.43C35704.2,1379.42 35693.8,1368.45 35686.1,1354.54C35678.3,1340.53 35674.5,1324.77 35674.5,1307.29C35674.5,1289.79 35678.3,1273.93 35686.1,1259.73C35693.8,1245.67 35704.2,1234.62 35717.5,1226.61C35730.7,1218.62 35745.5,1214.65 35761.8,1214.65C35778.1,1214.65 35792.8,1218.62 35806.1,1226.61C35819.3,1234.6 35829.6,1245.63 35837.1,1259.66C35844.7,1273.88 35848.5,1289.76 35848.5,1307.29C35848.5,1324.79 35844.7,1340.57 35837.1,1354.61C35829.6,1368.49 35819.3,1379.43 35806.1,1387.43C35792.8,1395.42 35778.1,1399.39 35761.8,1399.39Z" style="fill:rgb(0,107,107);fill-rule:nonzero;"/>
            </g>
            <g transform="matrix(1,0,0,1,9.18563,416.86)">
                <path d="M35431,1149.76C35411.1,1149.76 35392.2,1152.97 35374.5,1159.38C35356.3,1165.99 35341.5,1175.95 35330.3,1189.17C35318.6,1202.82 35312.7,1219.44 35312.7,1239.11C35312.7,1285.78 35348.4,1317.8 35422.5,1332.07C35422.5,1332.07 35422.5,1332.07 35422.5,1332.08C35447.6,1336.81 35465.4,1342.43 35475.9,1349.37C35484.3,1354.92 35488.8,1361.7 35488.8,1370.1C35488.8,1378.65 35484.3,1385.3 35475.9,1390.38C35465.6,1396.56 35451.2,1399.39 35432.7,1399.39C35418.4,1399.39 35404.9,1396.83 35392.3,1391.68C35380.1,1386.69 35370.8,1380.95 35364.7,1374.2C35364.6,1374.1 35364.5,1374 35364.4,1373.9C35356.2,1365.65 35347.3,1361.81 35338.2,1361.81C35331,1361.81 35323,1364.65 35314.5,1370.94C35314.4,1370.95 35314.4,1370.97 35314.4,1370.98C35305,1378.04 35300.4,1387.25 35300.4,1398.55C35300.4,1407.26 35303.5,1414.77 35309.8,1421.06C35322.7,1433.99 35340.5,1444.56 35363.4,1452.54C35385.7,1460.36 35409.5,1464.28 35434.8,1464.28C35460.5,1464.28 35482.4,1460.14 35500.7,1452.03C35519.7,1443.63 35533.9,1432.02 35543.7,1417.38C35553.6,1402.58 35558.5,1386.11 35558.5,1367.95C35558.5,1343.18 35549.4,1323.02 35531.2,1307.43C35514.2,1292.83 35485.3,1281.1 35444.5,1272.86C35426.2,1269.06 35412.2,1265.21 35402.5,1261.24C35394.3,1257.87 35388.6,1254.5 35385.6,1250.55C35383,1247.05 35381.9,1242.68 35381.9,1237.5C35381.9,1230.52 35385.9,1225.35 35393.3,1221.49C35402.8,1216.47 35415.1,1214.12 35430,1214.12C35443.2,1214.12 35454.5,1215.62 35463.8,1218.78C35472.8,1221.83 35481.3,1227.09 35489.3,1234.47C35489.3,1234.49 35489.4,1234.51 35489.4,1234.52C35498.5,1242.81 35508.8,1246.86 35520.2,1246.86C35528.2,1246.86 35534.8,1244.78 35540.1,1240.98C35540.2,1240.88 35540.3,1240.78 35540.5,1240.68C35548.8,1233.8 35552.6,1225.99 35552.6,1217.63C35552.6,1210.2 35549.8,1202.67 35543.8,1195.23C35532.2,1180.98 35516.6,1169.74 35496.7,1161.64C35477.4,1153.75 35455.5,1149.76 35431,1149.76Z" style="fill:rgb(0,107,107);fill-rule:nonzero;"/>
            </g>
            <g transform="matrix(1,0,0,1,9.18563,416.86)">
                <path d="M34288.6,1427.93C34288.8,1437.76 34292.3,1445.91 34298.8,1452.46C34305.6,1459.21 34314.1,1462.67 34324.3,1462.67C34324.3,1462.67 34324.3,1462.67 34324.3,1462.67C34334.5,1462.67 34343,1459.21 34349.8,1452.46C34356.5,1445.71 34360,1437.25 34360,1427C34360,1427 34360,1307.29 34360,1307.29C34360,1277.85 34353,1251.16 34339.3,1227.19C34325.5,1203.18 34306.8,1184.28 34283.1,1170.48C34259.5,1156.69 34233.1,1149.76 34204,1149.76C34175,1149.76 34148.5,1156.67 34124.5,1170.45C34100.5,1184.27 34081.6,1203.2 34068,1227.24C34054.4,1251.19 34047.6,1277.87 34047.6,1307.29C34047.6,1336.63 34053.9,1363.23 34066.5,1387.12C34079.2,1411.21 34096.7,1430.07 34118.9,1443.73C34141.1,1457.41 34165.9,1464.28 34193.3,1464.28C34215.4,1464.28 34235.9,1459.7 34254.9,1450.58C34267.4,1444.59 34278.6,1437.04 34288.6,1427.93ZM34204,1399.39C34187.7,1399.39 34173,1395.42 34159.8,1387.43C34146.5,1379.42 34136,1368.45 34128.4,1354.54C34120.6,1340.53 34116.8,1324.77 34116.8,1307.29C34116.8,1289.79 34120.6,1273.93 34128.4,1259.73C34136.1,1245.67 34146.5,1234.62 34159.8,1226.61C34173,1218.62 34187.7,1214.65 34204,1214.65C34220.4,1214.65 34235.1,1218.62 34248.3,1226.61C34261.6,1234.6 34271.9,1245.63 34279.4,1259.66C34287,1273.88 34290.8,1289.76 34290.8,1307.29C34290.8,1324.79 34287,1340.57 34279.4,1354.61C34271.9,1368.49 34261.6,1379.43 34248.3,1387.43C34235.1,1395.42 34220.4,1399.39 34204,1399.39Z" style="fill:rgb(0,107,107);fill-rule:nonzero;"/>
            </g>
            <g transform="matrix(1,0,0,1,2.18563,416.86)">
                <path d="M34427,1188.57L34427,1387.23C34427,1401.76 34429.7,1414.84 34434.9,1426.49C34440.4,1438.81 34448.3,1448.31 34458.3,1455.12C34468.5,1462.08 34479.9,1465.59 34492.7,1465.59C34492.7,1465.59 34493.4,1465.59 34493.4,1465.59C34503.4,1465.59 34511.5,1463 34517.8,1458.34C34525.5,1452.66 34529.2,1445.27 34529.2,1436.35C34529.2,1427.98 34526.6,1421.21 34521.8,1415.88C34516.7,1410.11 34510,1407.1 34501.8,1407.1C34501.8,1407.1 34492.7,1407.1 34492.7,1407.1C34491,1407.1 34490.2,1405.63 34489.1,1403.85C34486.6,1399.5 34485.5,1393.93 34485.5,1387.23C34485.5,1387.23 34485.5,1188.57 34485.5,1188.57C34485.5,1180.02 34482.6,1173.1 34477.2,1167.66C34471.8,1162.22 34464.8,1159.33 34456.3,1159.33C34447.7,1159.33 34440.8,1162.22 34435.4,1167.66C34429.9,1173.1 34427,1180.02 34427,1188.57Z" style="fill:rgb(0,107,107);fill-rule:nonzero;"/>
            </g>
            <g transform="matrix(1,0,0,1,15.1856,416.86)">
                <path d="M34687.5,1447.03C34688.9,1450.92 34691.2,1454.39 34694.2,1457.44C34694.2,1457.44 34694.2,1457.44 34694.2,1457.44C34699.8,1463.04 34706.8,1465.96 34715.3,1465.96C34715.3,1465.96 34715.3,1465.96 34715.3,1465.96C34723.8,1465.96 34730.8,1463.04 34736.4,1457.44C34742,1451.84 34745,1444.84 34745,1436.35C34745,1436.35 34745,1355.21 34745,1355.21C34745,1334.26 34740,1315.27 34730.2,1298.22C34720.4,1281.1 34707,1267.63 34690.2,1257.8C34673.3,1247.97 34654.6,1243.01 34633.8,1243.01C34613.1,1243.01 34594.3,1247.95 34577.2,1257.76C34560.1,1267.62 34546.6,1281.12 34536.9,1298.28C34527.2,1315.31 34522.4,1334.28 34522.4,1355.21C34522.4,1376.03 34526.9,1394.9 34535.8,1411.85C34544.9,1429.07 34557.4,1442.55 34573.3,1452.31C34589.2,1462.11 34607,1467.05 34626.6,1467.05C34642.3,1467.05 34657,1463.76 34670.6,1457.23C34676.7,1454.33 34682.3,1450.93 34687.5,1447.03ZM34633.8,1412.19C34623.8,1412.19 34614.7,1409.78 34606.6,1404.88C34598.5,1399.94 34592,1393.17 34587.3,1384.61C34582.5,1375.89 34580.1,1366.08 34580.1,1355.21C34580.1,1344.31 34582.5,1334.43 34587.3,1325.58C34592.1,1316.93 34598.5,1310.11 34606.6,1305.18C34614.7,1300.27 34623.8,1297.86 34633.8,1297.86C34643.9,1297.86 34652.9,1300.27 34661,1305.18C34669.2,1310.09 34675.5,1316.88 34680.1,1325.5C34684.9,1334.37 34687.2,1344.28 34687.2,1355.21C34687.2,1366.11 34684.9,1375.95 34680.2,1384.69C34675.5,1393.22 34669.2,1399.96 34661,1404.88C34652.9,1409.78 34643.9,1412.19 34633.8,1412.19Z" style="fill:rgb(0,107,107);fill-rule:nonzero;"/>
            </g>
            <g transform="matrix(1.35608,0,0,1.35608,-12441.7,-1112.18)">
                <ellipse cx="35063.2" cy="2091.38" rx="31.9" ry="30.819" style="fill:rgb(252,115,0);"/>
            </g>
        </g>
    </g>
</svg>
